Coordinates
version=1
nRows=19
nColumns=36
inDegrees=yes

Units are S.I. units (second, meters, Newtons, ...)
If the header above contains a line with 'inDegrees', this indicates whether rotational values are in degrees (yes) or radians (no).

endheader
time	pelvis_tilt	pelvis_list	pelvis_rotation	pelvis_tx	pelvis_ty	pelvis_tz	hip_flexion_r	hip_adduction_r	hip_rotation_r	knee_angle_r	knee_angle_r_beta	ankle_angle_r	subtalar_angle_r	mtp_angle_r	hip_flexion_l	hip_adduction_l	hip_rotation_l	knee_angle_l	knee_angle_l_beta	ankle_angle_l	subtalar_angle_l	mtp_angle_l	lumbar_extension	lumbar_bending	lumbar_rotation	arm_flex_r	arm_add_r	arm_rot_r	elbow_flex_r	pro_sup_r	arm_flex_l	arm_add_l	arm_rot_l	elbow_flex_l	pro_sup_l
      0.00000000	      5.14516629	     -3.06328692	     -0.45403211	     -0.92498183	      1.24494263	     -0.06569516	     -9.91048083	      2.56959999	     -4.37083665	      2.49002786	      0.04345918	      4.14398979	    -17.60596431	     -5.54734447	     -9.90370090	     -5.54867806	     -0.76931111	      3.11652031	      0.05439354	      9.85955035	     -8.08050482	     -5.54734447	    -11.68227907	      3.93473088	     -1.13583770	      5.41325388	     -8.22055997	     28.20070905	     21.82874389	     69.74003709	      2.15439885	     -6.17591875	     23.47907318	     23.66946276	     62.18178397
      0.00416670	      3.11530915	     -2.09361299	     -0.44518488	     -0.92116723	      1.24622891	     -0.06434299	     -6.74039575	      1.98981170	     -3.87421451	      3.80987752	      0.06649491	      6.65762709	    -15.55091643	     -5.65090371	     -6.88011214	     -4.01288421	      0.13334032	      3.78464279	      0.06605448	      9.55942712	     -8.46603270	     -5.65090371	     -8.64728917	      2.78829818	     -1.12273516	      4.19130433	     -7.45627649	     26.35911371	     21.07170948	     70.04957570	      1.67408058	     -6.04320664	     22.60735500	     22.45051001	     62.26474885
      0.00833330	      2.67815024	     -1.01950551	     -0.76038579	     -0.92123306	      1.24717363	     -0.06262810	     -6.60344560	      0.86542387	     -4.29963747	      2.85023795	      0.04974604	      6.47932637	    -14.60441270	     -6.65966788	     -6.84050370	     -2.91888506	     -0.31728124	      3.03194303	      0.05291739	      8.78429006	     -8.32130654	     -6.65966788	     -7.83836805	      1.06446493	     -0.70179323	      3.46848207	     -6.61404839	     24.58249749	     21.11507154	     67.56279677	      1.94523482	     -7.04249567	     23.84829892	     22.55650678	     62.47206041
      0.01250000	      3.48834236	     -0.59271173	     -0.87192825	     -0.92154361	      1.25105252	     -0.06221915	     -7.95638270	      0.34635958	     -4.17446004	      2.02570637	      0.03535525	      6.38550607	    -14.20256466	     -6.81284323	     -8.52845723	     -2.39891686	     -0.50062307	      1.75248627	      0.03058666	      7.66618054	     -9.02517134	     -6.81284323	     -8.66818053	      0.25988079	     -0.45616805	      3.33202329	     -6.16381972	     23.90452620	     20.91942514	     66.64628819	      2.29599183	     -7.56502811	     24.43456880	     22.37535356	     62.52654734
      0.01666670	      4.21513366	     -0.39860720	     -0.88134761	     -0.92234562	      1.25317345	     -0.06179254	     -9.05732063	      0.19639112	     -4.07084285	      1.35728398	      0.02368907	      6.23311546	    -14.07771965	     -7.00941643	     -9.67420291	     -2.10879314	     -0.27394610	      1.08339237	      0.01890876	      7.18102831	     -9.49195212	     -7.00941643	     -9.79998228	     -0.13146262	      0.07284906	      3.00994615	     -6.22909116	     23.55044205	     21.88081354	     67.64940467	      3.20338159	     -8.31165392	     28.74024567	     22.51516128	     64.31309430
      0.02083330	      4.60187779	     -0.33226984	     -0.96019458	     -0.92516110	      1.24923195	     -0.06230019	     -9.55607923	      0.13972453	     -3.43517354	      1.03340352	      0.01803629	      5.82370255	    -14.89288156	     -7.05388623	    -10.10910652	     -1.92392026	     -0.31189478	      0.83664980	      0.01460229	      6.86235063	     -9.90936852	     -7.05388623	    -10.70996688	     -0.25992707	      0.31285936	      3.18879292	     -6.36368162	     23.52648956	     22.56177488	     67.60338227	      3.66654986	     -8.45193024	     29.13045483	     22.92476246	     64.41976856
      0.02500000	      4.80478682	     -0.31729992	     -0.96113670	     -0.92441373	      1.24904305	     -0.06262708	     -9.84408769	      0.12374555	     -3.20568806	      0.87630726	      0.01529445	      5.67475326	    -15.21613018	     -7.33606763	    -10.30772308	     -1.83776687	     -0.18306253	      0.70128972	      0.01223981	      6.65377965	    -10.20602278	     -7.33606763	    -11.22256828	     -0.29398554	      0.50846511	      3.39035401	     -6.68365813	     25.16911343	     22.92758992	     66.31068145	      4.27423787	     -8.60896070	     31.38458922	     22.81835265	     63.72394445
      0.02916670	      4.96386578	     -0.32622849	     -1.04660416	     -0.92587435	      1.24947620	     -0.06277333	    -10.02218211	      0.12581100	     -2.80673933	      0.78843843	      0.01376085	      5.54376543	    -15.81497215	     -7.41086009	    -10.42582998	     -1.77012465	     -0.05947439	      0.63662258	      0.01111116	      6.32344481	    -10.62611621	     -7.41086009	    -11.74593834	     -0.26413945	      0.72354328	      3.61017136	     -6.95181644	     25.98281178	     23.31933925	     65.45347810	      4.65182619	     -8.60098404	     32.07409021	     22.95658774	     63.05735667
      0.03333330	      5.03840990	     -0.33164791	     -1.07362399	     -0.92576004	      1.25099845	     -0.06187140	    -10.10857278	      0.15531447	     -2.55505813	      0.71108662	      0.01241080	      5.33521454	    -16.19056483	     -7.47380810	    -10.46166432	     -1.77168648	      0.09969740	      0.59356339	      0.01035964	      5.96155195	    -11.23230752	     -7.47380810	    -12.07826147	     -0.28653967	      0.83168698	      3.72599783	     -7.12890841	     26.76871754	     23.63040772	     63.46187695	      4.87877249	     -8.64132129	     32.48141120	     23.10184483	     61.75537360
      0.03750000	      4.83650203	     -0.32678862	     -1.14828073	     -0.92659733	      1.25276382	     -0.06187729	     -9.88048051	      0.16775958	     -2.38993027	      0.65464444	      0.01142570	      5.13150701	    -16.64494023	     -7.48812143	    -10.22887170	     -1.76713188	      0.17160578	      0.56174371	      0.00980428	      5.76405770	    -11.22301919	     -7.48812143	    -11.93003522	     -0.26571543	      0.95864208	      3.87231835	     -7.37076430	     28.08723915	     23.62947747	     64.49918356	      5.11152440	     -8.74256874	     34.01371134	     22.91284486	     62.11959278
      0.04166670	      4.81712627	     -0.33710919	     -1.21067750	     -0.92461028	      1.25208308	     -0.06085010	     -9.86630762	      0.20283207	     -2.45154768	      0.61297445	      0.01069842	      5.15571580	    -16.71584732	     -7.48813264	    -10.24799773	     -1.81590149	      0.16240979	      0.56177871	      0.00980489	      5.71367195	    -11.20357363	     -7.48813264	    -11.95082010	     -0.28151216	      0.99939127	      3.88997223	     -7.37560183	     28.09395502	     23.64225799	     64.50961246	      5.10047743	     -8.78956972	     34.01609697	     22.90296591	     62.12109388
      0.04583330	      4.69072201	     -0.34833080	     -1.25237364	     -0.92532808	      1.25220072	     -0.06103652	     -9.73694678	      0.24017530	     -2.30145072	      0.56144214	      0.00979901	      4.91796319	    -17.34099542	     -7.49062985	    -10.15704397	     -1.85726648	      0.15146958	      0.52178410	      0.00910685	      5.44995850	    -11.22846137	     -7.49062985	    -11.85458335	     -0.25903911	      1.14715397	      3.83117180	     -7.53375065	     28.47834259	     23.86823634	     64.56123753	      5.13096720	     -8.90719609	     34.45555753	     23.03632557	     62.03100702
      0.05000000	      4.73437025	     -0.36041139	     -1.25340885	     -0.92433579	      1.24950167	     -0.05984200	     -9.82879621	      0.32250124	     -2.06981524	      0.52331509	      0.00913357	      4.59715449	    -18.09156435	     -7.49220502	    -10.26374909	     -1.93926723	     -0.00279412	      0.49611875	      0.00865891	      5.53454863	    -11.01987175	     -7.49220502	    -11.85839648	     -0.32516263	      1.26153311	      3.82424170	     -7.63849079	     29.15048886	     23.95353229	     64.95025937	      5.20693354	     -9.11935688	     35.19598327	     23.13020374	     62.11498817
      0.05416670	      4.68457989	     -0.37096786	     -1.24117916	     -0.92461981	      1.24694233	     -0.05952527	     -9.81320479	      0.39161431	     -1.99313393	      0.51236228	      0.00894241	      4.42488549	    -18.69618460	     -7.49353226	    -10.26355116	     -2.01285436	     -0.14626745	      0.48866349	      0.00852879	      5.65314079	    -10.90829679	     -7.49353226	    -11.76624121	     -0.35282089	      1.31420147	      3.80602482	     -7.66321160	     29.47208326	     23.98674944	     64.98515334	      5.22087875	     -9.25320940	     35.60236600	     23.18243113	     62.05375254
      0.05833330	      4.54285314	     -0.38584482	     -1.25198925	     -0.92427369	      1.25140097	     -0.05976520	     -9.69304261	      0.45287936	     -2.00054384	      0.49772808	      0.00868699	      4.38686924	    -18.96135630	     -7.49401423	    -10.15248202	     -2.07176542	     -0.34440048	      0.47501040	      0.00829050	      5.64263732	    -10.69085483	     -7.49401423	    -11.51883881	     -0.34024797	      1.39560807	      3.80150718	     -7.63481661	     29.58530572	     23.69396739	     65.01327864	      5.21647873	     -9.24384567	     35.72507925	     22.90062634	     62.02918765
      0.06250000	      4.52124273	     -0.37443862	     -1.23483747	     -0.92479567	      1.24895562	     -0.06007841	     -9.67485143	      0.48275189	     -1.88858886	      0.47390171	      0.00827115	      4.28062856	    -19.44309991	     -7.49513237	    -10.16497432	     -2.09599425	     -0.41540832	      0.46564377	      0.00812702	      5.66420631	    -10.62536642	     -7.49513237	    -11.47911283	     -0.38595725	      1.39994233	      3.77109325	     -7.77109420	     29.99887175	     24.00452773	     64.84565733	      5.17441211	     -9.48241854	     36.21650870	     23.23777097	     61.93755827
      0.06666670	      4.49192686	     -0.37497125	     -1.21082491	     -0.92477542	      1.24577264	     -0.06014396	     -9.64104418	      0.49755896	     -1.96033590	      0.45518573	      0.00794449	      4.40858160	    -19.60894194	     -7.49513874	    -10.15674582	     -2.13521947	     -0.39754962	      0.46276525	      0.00807678	      5.69632194	    -10.64031540	     -7.49513874	    -11.42708790	     -0.39012922	      1.43887698	      3.80435827	     -7.78169476	     30.01406171	     23.97493462	     64.85557312	      5.17334662	     -9.50922269	     36.23647333	     23.19933964	     61.94195123
      0.07083330	      4.25469705	     -0.38763399	     -1.11936326	     -0.92299874	      1.24789803	     -0.05948133	     -9.43944216	      0.56373466	     -1.91113249	      0.44273793	      0.00772723	      4.35150904	    -19.95399919	     -7.49597609	     -9.90257829	     -2.19451058	     -0.30699658	      0.44640665	      0.00779127	      5.61863155	    -10.68567446	     -7.49597609	    -11.00015035	     -0.39222858	      1.41219618	      3.66414352	     -7.80322697	     30.40598344	     23.93171120	     64.64783322	      5.04259501	     -9.66473207	     36.73600112	     23.21541554	     61.88268390
      0.07500000	      4.09137065	     -0.36330585	     -1.09949755	     -0.92457838	      1.24623936	     -0.06054866	     -9.25194520	      0.53552114	     -1.85234513	      0.43674851	      0.00762270	      4.30642124	    -20.39072186	     -7.49655639	     -9.71839880	     -2.17416893	     -0.33079122	      0.44477685	      0.00776282	      5.69359438	    -10.66186931	     -7.49655639	    -10.66594458	     -0.39675467	      1.43230782	      3.60767228	     -7.88487657	     30.77790286	     23.93918084	     64.52317635	      4.98652517	     -9.73906595	     37.19878383	     23.21943232	     61.85668042
